<svg xmlns="http://www.w3.org/2000/svg" width="491.14" height="35" viewBox="0 0 491.14 35"><rect class="svg__rect" x="0" y="0" width="127.25" height="35" fill="#000000"/><rect class="svg__rect" x="125.25" y="0" width="365.89" height="35" fill="#EA4560"/><path class="svg__text" d="M15.70 22L14.22 22L14.22 13.47L17.48 13.47Q18.91 13.47 19.75 14.21Q20.59 14.96 20.59 16.18L20.59 16.18Q20.59 17.44 19.77 18.13Q18.95 18.83 17.46 18.83L17.46 18.83L15.70 18.83L15.70 22ZM15.70 14.66L15.70 17.64L17.48 17.64Q18.27 17.64 18.69 17.27Q19.10 16.90 19.10 16.19L19.10 16.19Q19.10 15.50 18.68 15.09Q18.26 14.68 17.52 14.66L17.52 14.66L15.70 14.66ZM24.61 18.00L24.61 18.00L24.61 17.52Q24.61 16.28 25.05 15.32Q25.49 14.37 26.30 13.86Q27.10 13.35 28.14 13.35Q29.19 13.35 29.99 13.85Q30.80 14.35 31.24 15.29Q31.68 16.23 31.68 17.48L31.68 17.48L31.68 17.96Q31.68 19.21 31.25 20.16Q30.82 21.10 30.01 21.61Q29.21 22.12 28.16 22.12L28.16 22.12Q27.12 22.12 26.31 21.61Q25.50 21.10 25.05 20.17Q24.61 19.23 24.61 18.00ZM26.09 17.46L26.09 17.96Q26.09 19.36 26.64 20.13Q27.18 20.90 28.16 20.90L28.16 20.90Q29.14 20.90 29.67 20.15Q30.20 19.40 30.20 17.96L30.20 17.96L30.20 17.51Q30.20 16.09 29.67 15.34Q29.13 14.58 28.14 14.58L28.14 14.58Q27.18 14.58 26.64 15.33Q26.10 16.09 26.09 17.46L26.09 17.46ZM37.53 22L35.56 13.47L37.03 13.47L38.36 19.88L39.99 13.47L41.23 13.47L42.84 19.89L44.15 13.47L45.62 13.47L43.65 22L42.24 22L40.61 15.77L38.96 22L37.53 22ZM55.27 22L49.70 22L49.70 13.47L55.23 13.47L55.23 14.66L51.18 14.66L51.18 17.02L54.68 17.02L54.68 18.19L51.18 18.19L51.18 20.82L55.27 20.82L55.27 22ZM60.95 22L59.47 22L59.47 13.47L62.47 13.47Q63.95 13.47 64.75 14.13Q65.55 14.79 65.55 16.05L65.55 16.05Q65.55 16.90 65.14 17.48Q64.72 18.06 63.99 18.37L63.99 18.37L65.90 21.92L65.90 22L64.31 22L62.60 18.71L60.95 18.71L60.95 22ZM60.95 14.66L60.95 17.52L62.48 17.52Q63.23 17.52 63.65 17.15Q64.07 16.77 64.07 16.11L64.07 16.11Q64.07 15.43 63.68 15.05Q63.29 14.68 62.52 14.66L62.52 14.66L60.95 14.66ZM75.52 22L69.95 22L69.95 13.47L75.48 13.47L75.48 14.66L71.43 14.66L71.43 17.02L74.93 17.02L74.93 18.19L71.43 18.19L71.43 20.82L75.52 20.82L75.52 22ZM82.17 22L79.72 22L79.72 13.47L82.24 13.47Q83.37 13.47 84.25 13.97Q85.12 14.48 85.60 15.40Q86.08 16.33 86.08 17.52L86.08 17.52L86.08 17.95Q86.08 19.16 85.60 20.08Q85.12 21.00 84.22 21.50Q83.33 22 82.17 22L82.17 22ZM81.20 14.66L81.20 20.82L82.17 20.82Q83.33 20.82 83.96 20.09Q84.58 19.36 84.59 17.99L84.59 17.99L84.59 17.52Q84.59 16.13 83.99 15.40Q83.39 14.66 82.24 14.66L82.24 14.66L81.20 14.66ZM99.64 22L96.52 22L96.52 13.47L99.45 13.47Q100.89 13.47 101.65 14.05Q102.41 14.63 102.41 15.78L102.41 15.78Q102.41 16.36 102.09 16.83Q101.77 17.30 101.16 17.56L101.16 17.56Q101.86 17.75 102.23 18.26Q102.61 18.78 102.61 19.51L102.61 19.51Q102.61 20.71 101.84 21.36Q101.07 22 99.64 22L99.64 22ZM98.01 18.15L98.01 20.82L99.65 20.82Q100.35 20.82 100.74 20.47Q101.14 20.13 101.14 19.51L101.14 19.51Q101.14 18.18 99.78 18.15L99.78 18.15L98.01 18.15ZM98.01 14.66L98.01 17.06L99.46 17.06Q100.15 17.06 100.54 16.75Q100.93 16.43 100.93 15.86L100.93 15.86Q100.93 15.23 100.57 14.95Q100.21 14.66 99.45 14.66L99.45 14.66L98.01 14.66ZM109.12 18.86L106.26 13.47L107.90 13.47L109.87 17.51L111.83 13.47L113.47 13.47L110.61 18.86L110.61 22L109.12 22L109.12 18.86Z" fill="#FFFFFF"/><path class="svg__text" d="M146.18 22L139.44 22L139.44 13.60L146.03 13.60L146.03 15.44L141.79 15.44L141.79 16.85L145.53 16.85L145.53 18.63L141.79 18.63L141.79 20.17L146.18 20.17L146.18 22ZM153.32 22L150.99 22L150.99 13.60L152.94 13.60L156.65 18.07L156.65 13.60L158.98 13.60L158.98 22L157.03 22L153.32 17.52L153.32 22ZM163.71 17.80L163.71 17.80Q163.71 16.55 164.32 15.55Q164.92 14.56 165.98 14.00Q167.05 13.43 168.38 13.43L168.38 13.43Q169.71 13.43 170.77 14.00Q171.83 14.56 172.44 15.55Q173.05 16.55 173.05 17.80L173.05 17.80Q173.05 19.05 172.44 20.04Q171.83 21.04 170.77 21.60Q169.71 22.17 168.38 22.17L168.38 22.17Q167.05 22.17 165.98 21.60Q164.92 21.04 164.32 20.04Q163.71 19.05 163.71 17.80ZM166.11 17.80L166.11 17.80Q166.11 18.51 166.41 19.05Q166.71 19.60 167.23 19.90Q167.74 20.20 168.38 20.20L168.38 20.20Q169.02 20.20 169.53 19.90Q170.05 19.60 170.35 19.05Q170.64 18.51 170.64 17.80L170.64 17.80Q170.64 17.09 170.35 16.54Q170.05 16 169.53 15.70Q169.02 15.40 168.38 15.40L168.38 15.40Q167.74 15.40 167.23 15.70Q166.71 16 166.41 16.54Q166.11 17.09 166.11 17.80ZM177.71 18.26L177.71 18.26L177.71 13.60L180.08 13.60L180.08 18.19Q180.08 20.20 181.68 20.20L181.68 20.20Q183.26 20.20 183.26 18.19L183.26 18.19L183.26 13.60L185.60 13.60L185.60 18.26Q185.60 20.13 184.56 21.15Q183.52 22.17 181.65 22.17L181.65 22.17Q179.78 22.17 178.74 21.15Q177.71 20.13 177.71 18.26ZM190.26 17.80L190.26 17.80Q190.26 16.54 190.86 15.54Q191.46 14.55 192.53 13.99Q193.60 13.43 194.94 13.43L194.94 13.43Q196.12 13.43 197.05 13.83Q197.99 14.22 198.61 14.97L198.61 14.97L197.10 16.33Q196.26 15.40 195.08 15.40L195.08 15.40Q195.07 15.40 195.06 15.40L195.06 15.40Q193.98 15.40 193.32 16.06Q192.66 16.71 192.66 17.80L192.66 17.80Q192.66 18.50 192.96 19.04Q193.26 19.59 193.80 19.89Q194.34 20.20 195.04 20.20L195.04 20.20Q195.72 20.20 196.32 19.93L196.32 19.93L196.32 17.62L198.42 17.62L198.42 21.10Q197.70 21.61 196.76 21.89Q195.83 22.17 194.89 22.17L194.89 22.17Q193.57 22.17 192.52 21.61Q191.46 21.05 190.86 20.05Q190.26 19.06 190.26 17.80ZM205.79 22L203.41 22L203.41 13.60L205.79 13.60L205.79 16.76L209.03 16.76L209.03 13.60L211.40 13.60L211.40 22L209.03 22L209.03 18.72L205.79 18.72L205.79 22ZM223.11 17.80L223.11 17.80Q223.11 16.54 223.71 15.54Q224.31 14.55 225.36 13.99Q226.41 13.43 227.73 13.43L227.73 13.43Q228.88 13.43 229.80 13.84Q230.73 14.25 231.34 15.02L231.34 15.02L229.83 16.39Q229.02 15.40 227.85 15.40L227.85 15.40Q227.16 15.40 226.63 15.70Q226.10 16 225.80 16.54Q225.51 17.09 225.51 17.80L225.51 17.80Q225.51 18.51 225.80 19.05Q226.10 19.60 226.63 19.90Q227.16 20.20 227.85 20.20L227.85 20.20Q229.02 20.20 229.83 19.22L229.83 19.22L231.34 20.58Q230.73 21.35 229.81 21.76Q228.88 22.17 227.73 22.17L227.73 22.17Q226.41 22.17 225.36 21.61Q224.31 21.05 223.71 20.05Q223.11 19.06 223.11 17.80ZM237.30 22L234.87 22L238.58 13.60L240.92 13.60L244.64 22L242.17 22L241.51 20.37L237.96 20.37L237.30 22ZM239.73 15.93L238.65 18.61L240.81 18.61L239.73 15.93ZM251.17 22L248.79 22L248.79 13.60L255.38 13.60L255.38 15.44L251.17 15.44L251.17 17.28L254.88 17.28L254.88 19.12L251.17 19.12L251.17 22ZM262.36 22L259.98 22L259.98 13.60L266.57 13.60L266.57 15.44L262.36 15.44L262.36 17.28L266.06 17.28L266.06 19.12L262.36 19.12L262.36 22ZM277.91 22L271.16 22L271.16 13.60L277.75 13.60L277.75 15.44L273.52 15.44L273.52 16.85L277.25 16.85L277.25 18.63L273.52 18.63L273.52 20.17L277.91 20.17L277.91 22ZM285.09 22L282.71 22L282.71 13.60L285.09 13.60L285.09 22ZM292.60 22L290.26 22L290.26 13.60L292.22 13.60L295.93 18.07L295.93 13.60L298.26 13.60L298.26 22L296.31 22L292.60 17.52L292.60 22ZM310.16 22L303.42 22L303.42 13.60L310.01 13.60L310.01 15.44L305.77 15.44L305.77 16.85L309.51 16.85L309.51 18.63L305.77 18.63L305.77 20.17L310.16 20.17L310.16 22ZM323.73 15.48L321.15 15.48L321.15 13.60L328.67 13.60L328.67 15.48L326.11 15.48L326.11 22L323.73 22L323.73 15.48ZM332.62 17.80L332.62 17.80Q332.62 16.55 333.22 15.55Q333.82 14.56 334.89 14.00Q335.95 13.43 337.28 13.43L337.28 13.43Q338.61 13.43 339.67 14.00Q340.74 14.56 341.34 15.55Q341.95 16.55 341.95 17.80L341.95 17.80Q341.95 19.05 341.34 20.04Q340.74 21.04 339.68 21.60Q338.62 22.17 337.28 22.17L337.28 22.17Q335.95 22.17 334.89 21.60Q333.82 21.04 333.22 20.04Q332.62 19.05 332.62 17.80ZM335.01 17.80L335.01 17.80Q335.01 18.51 335.31 19.05Q335.62 19.60 336.13 19.90Q336.65 20.20 337.28 20.20L337.28 20.20Q337.92 20.20 338.43 19.90Q338.95 19.60 339.25 19.05Q339.55 18.51 339.55 17.80L339.55 17.80Q339.55 17.09 339.25 16.54Q338.95 16 338.43 15.70Q337.92 15.40 337.28 15.40L337.28 15.40Q336.64 15.40 336.13 15.70Q335.62 16 335.31 16.54Q335.01 17.09 335.01 17.80ZM356.01 22L353.65 22L353.65 13.60L356.01 13.60L356.01 17.09L359.26 13.60L361.87 13.60L358.44 17.32L362.05 22L359.29 22L356.89 18.95L356.01 19.90L356.01 22ZM368.54 22L366.16 22L366.16 13.60L368.54 13.60L368.54 22ZM380.10 22L373.71 22L373.71 13.60L376.09 13.60L376.09 20.11L380.10 20.11L380.10 22ZM390.90 22L384.52 22L384.52 13.60L386.90 13.60L386.90 20.11L390.90 20.11L390.90 22ZM403.71 22L401.29 22L405.00 13.60L407.34 13.60L411.06 22L408.59 22L407.93 20.37L404.38 20.37L403.71 22ZM406.15 15.93L405.07 18.61L407.23 18.61L406.15 15.93ZM424.56 22L422.18 22L422.18 13.60L424.56 13.60L424.56 16.76L427.80 16.76L427.80 13.60L430.17 13.60L430.17 22L427.80 22L427.80 18.72L424.56 18.72L424.56 22ZM434.91 17.80L434.91 17.80Q434.91 16.55 435.51 15.55Q436.12 14.56 437.18 14.00Q438.24 13.43 439.57 13.43L439.57 13.43Q440.90 13.43 441.97 14.00Q443.03 14.56 443.64 15.55Q444.24 16.55 444.24 17.80L444.24 17.80Q444.24 19.05 443.64 20.04Q443.03 21.04 441.97 21.60Q440.91 22.17 439.57 22.17L439.57 22.17Q438.24 22.17 437.18 21.60Q436.12 21.04 435.51 20.04Q434.91 19.05 434.91 17.80ZM437.31 17.80L437.31 17.80Q437.31 18.51 437.61 19.05Q437.91 19.60 438.42 19.90Q438.94 20.20 439.57 20.20L439.57 20.20Q440.21 20.20 440.73 19.90Q441.24 19.60 441.54 19.05Q441.84 18.51 441.84 17.80L441.84 17.80Q441.84 17.09 441.54 16.54Q441.24 16 440.73 15.70Q440.21 15.40 439.57 15.40L439.57 15.40Q438.93 15.40 438.42 15.70Q437.91 16 437.61 16.54Q437.31 17.09 437.31 17.80ZM451.35 22L448.97 22L448.97 13.60L452.81 13.60Q453.96 13.60 454.80 13.98Q455.63 14.35 456.09 15.06Q456.55 15.76 456.55 16.71L456.55 16.71Q456.55 17.62 456.12 18.30Q455.69 18.98 454.90 19.36L454.90 19.36L456.71 22L454.17 22L452.64 19.77L451.35 19.77L451.35 22ZM451.35 15.47L451.35 17.93L452.67 17.93Q453.40 17.93 453.77 17.61Q454.14 17.29 454.14 16.71L454.14 16.71Q454.14 16.12 453.77 15.79Q453.40 15.47 452.67 15.47L452.67 15.47L451.35 15.47ZM460.75 21.24L460.75 21.24L461.53 19.49Q462.09 19.86 462.83 20.09Q463.58 20.32 464.30 20.32L464.30 20.32Q465.66 20.32 465.67 19.64L465.67 19.64Q465.67 19.28 465.28 19.11Q464.89 18.93 464.02 18.74L464.02 18.74Q463.07 18.53 462.44 18.30Q461.80 18.06 461.35 17.55Q460.89 17.03 460.89 16.16L460.89 16.16Q460.89 15.39 461.31 14.77Q461.73 14.15 462.57 13.79Q463.40 13.43 464.61 13.43L464.61 13.43Q465.44 13.43 466.24 13.62Q467.05 13.80 467.66 14.17L467.66 14.17L466.93 15.93Q465.73 15.28 464.60 15.28L464.60 15.28Q463.89 15.28 463.57 15.49Q463.24 15.70 463.24 16.04L463.24 16.04Q463.24 16.37 463.63 16.54Q464.01 16.71 464.86 16.89L464.86 16.89Q465.82 17.10 466.45 17.33Q467.08 17.56 467.55 18.07Q468.01 18.58 468.01 19.46L468.01 19.46Q468.01 20.21 467.59 20.83Q467.17 21.44 466.33 21.80Q465.49 22.17 464.29 22.17L464.29 22.17Q463.27 22.17 462.31 21.92Q461.35 21.67 460.75 21.24ZM479.33 22L472.58 22L472.58 13.60L479.18 13.60L479.18 15.44L474.94 15.44L474.94 16.85L478.67 16.85L478.67 18.63L474.94 18.63L474.94 20.17L479.33 20.17L479.33 22Z" fill="#FFFFFF" x="138.25"/></svg>